{"glyphs":{" ":{"ha":407,"x_min":0,"x_max":0,"o":""},"!":{"ha":517,"x_min":199,"x_max":363,"o":"m 271 271 l 258 439 q 251 509 254 473 q 241 581 248 545 q 238 605 239 598 q 237 616 237 612 q 235 628 236 621 q 232 652 233 635 q 219 739 225 697 q 209 818 213 781 q 202 883 205 854 q 199 928 199 911 q 222 1015 199 983 q 283 1046 244 1046 q 363 920 363 1046 q 363 891 363 905 q 362 865 363 878 l 292 271 l 271 271 m 283 151 q 340 125 317 151 q 363 65 363 100 q 340 9 363 31 q 282 -14 317 -14 q 223 9 247 -14 q 199 66 199 31 q 224 126 199 102 q 283 151 248 151 z "},"\"":{"ha":632,"x_min":119,"x_max":513,"o":"m 431 666 q 411 777 420 723 q 395 873 401 830 q 385 944 388 916 q 381 982 381 972 q 400 1027 381 1009 q 448 1046 419 1046 q 493 1028 473 1046 q 513 986 513 1010 q 503 884 513 951 q 473 730 492 818 l 465 688 l 463 666 l 431 666 m 167 666 q 148 777 156 723 q 133 873 140 830 q 123 944 126 916 q 119 982 119 972 q 139 1027 119 1009 q 186 1046 159 1046 q 232 1028 213 1046 q 251 986 251 1010 q 241 884 251 951 q 212 730 231 818 q 205 699 209 715 q 199 666 202 684 l 167 666 z "},"#":{"ha":774,"x_min":7,"x_max":768,"o":"m 730 334 l 560 334 l 513 0 l 422 0 l 469 334 l 263 334 l 212 0 l 121 0 l 172 334 l 7 334 l 7 419 l 186 419 l 221 627 l 50 627 l 50 712 l 232 712 l 281 1025 l 369 1025 l 321 712 l 528 712 l 574 1025 l 665 1025 l 617 712 l 768 712 l 768 627 l 605 627 l 574 419 l 730 419 l 730 334 m 309 627 l 277 419 l 484 419 l 517 627 l 309 627 z "},"$":{"ha":774,"x_min":68,"x_max":708,"o":"m 633 774 q 560 924 614 873 q 408 986 506 975 l 408 605 q 523 536 477 564 q 597 486 568 507 q 644 445 627 464 q 677 401 662 426 q 708 263 708 351 q 687 160 708 206 q 627 81 666 114 q 585 52 606 64 q 540 31 564 39 q 484 14 515 22 q 408 0 452 7 l 408 -136 l 355 -136 l 355 0 q 270 6 308 1 q 199 20 232 11 q 134 43 165 28 q 68 79 102 57 l 68 281 l 91 281 q 182 101 118 157 q 355 42 245 45 l 355 480 q 222 564 275 526 q 138 636 170 601 q 93 709 106 671 q 80 793 80 747 q 102 887 80 844 q 164 962 125 930 q 202 989 183 978 q 243 1007 221 1000 q 292 1020 264 1015 q 355 1029 319 1025 l 355 1126 l 408 1126 l 408 1029 q 562 998 506 1016 q 658 945 618 981 l 658 774 l 633 774 m 354 986 q 195 827 195 954 q 202 778 195 800 q 226 734 209 755 q 274 688 243 712 q 354 631 305 663 l 354 986 m 408 42 q 541 104 498 61 q 585 225 585 148 q 577 289 585 262 q 550 342 570 316 q 496 393 530 368 q 408 453 463 419 l 408 42 z "},"&":{"ha":1204,"x_min":65,"x_max":1161,"o":"m 1100 627 q 1050 617 1072 623 q 1013 602 1029 612 q 983 575 997 591 q 955 534 968 559 l 914 463 q 880 405 897 431 q 845 351 863 378 q 807 295 827 324 q 761 232 787 266 q 998 90 868 90 q 1071 107 1040 90 q 1138 171 1101 125 l 1161 153 q 1064 26 1126 72 q 928 -20 1002 -20 q 799 12 860 -20 q 665 121 738 45 q 581 56 621 83 q 500 12 540 28 q 418 -13 460 -5 q 330 -20 376 -20 q 135 42 205 -20 q 65 216 65 104 q 125 395 65 313 q 308 548 184 477 l 366 583 q 340 660 350 628 q 323 718 330 692 q 315 766 317 743 q 313 811 313 788 q 332 903 313 860 q 382 977 350 945 q 458 1027 415 1009 q 551 1046 502 1046 q 635 1032 597 1046 q 702 994 674 1019 q 745 935 730 968 q 761 860 761 901 q 748 783 761 818 q 707 716 735 747 q 632 655 678 685 q 519 594 586 625 q 568 503 545 544 q 615 425 591 463 q 665 352 639 388 q 724 275 692 316 q 833 440 800 374 q 865 557 865 506 q 844 606 865 591 q 765 627 823 620 l 765 659 l 1100 659 l 1100 627 m 495 644 q 633 747 589 693 q 678 865 678 800 q 643 960 678 922 q 553 997 608 997 q 468 962 502 997 q 434 872 434 928 q 437 820 434 845 q 447 768 439 795 q 466 711 454 742 q 495 644 477 681 m 389 530 q 304 469 339 498 q 247 410 269 439 q 216 347 225 380 q 206 278 206 315 q 222 193 206 233 q 265 123 237 153 q 330 77 293 94 q 407 60 366 60 q 507 83 457 60 q 625 160 556 107 q 564 239 593 201 q 509 319 536 277 q 452 413 481 362 q 389 530 423 464 z "},"'":{"ha":278,"x_min":73,"x_max":205,"o":"m 123 666 q 104 777 113 723 q 88 873 95 830 q 77 944 81 916 q 73 982 73 972 q 93 1027 73 1009 q 140 1046 113 1046 q 186 1028 167 1046 q 205 986 205 1010 q 195 884 205 951 q 167 730 186 818 q 161 699 164 715 q 156 666 159 684 l 123 666 z "},"(":{"ha":517,"x_min":73,"x_max":469,"o":"m 469 1021 q 398 959 429 987 q 345 903 368 930 q 303 846 321 875 q 269 780 285 817 q 222 612 237 707 q 206 395 206 518 q 220 186 206 275 q 262 19 233 96 q 294 -58 277 -24 q 335 -121 312 -91 q 391 -182 358 -152 q 469 -250 423 -213 l 452 -274 q 397 -239 420 -256 q 353 -205 374 -222 q 312 -166 332 -187 q 267 -117 292 -145 q 179 1 216 -58 q 119 121 142 60 q 85 249 96 183 q 73 389 73 315 q 237 861 73 659 q 280 909 259 887 q 326 951 301 930 q 381 995 350 972 q 456 1046 412 1017 l 469 1021 z "},")":{"ha":517,"x_min":45,"x_max":441,"o":"m 45 -250 q 117 -187 87 -216 q 171 -131 148 -159 q 212 -73 194 -103 q 245 -7 229 -43 q 308 377 308 136 q 294 586 308 496 q 252 754 281 675 q 219 831 236 798 q 178 895 202 864 q 123 955 155 925 q 45 1021 91 985 l 64 1046 q 117 1010 94 1027 q 162 976 141 994 q 203 937 183 958 q 248 888 224 916 q 335 770 298 829 q 395 650 372 712 q 430 523 419 589 q 441 382 441 457 q 400 128 441 244 q 277 -90 359 12 q 235 -138 256 -117 q 189 -180 214 -159 q 132 -223 164 -201 q 58 -274 100 -245 l 45 -250 z "},",":{"ha":387,"x_min":87,"x_max":301,"o":"m 114 -190 q 241 -24 241 -102 q 235 -9 241 -15 q 221 -4 229 -4 q 217 -4 218 -4 q 209 -7 216 -4 q 194 -9 202 -8 q 178 -11 186 -11 q 111 11 134 -11 q 87 68 87 33 q 112 132 87 107 q 178 157 137 157 q 266 118 231 157 q 301 20 301 79 q 254 -115 301 -50 q 127 -218 206 -179 l 114 -190 z "},"-":{"ha":517,"x_min":60,"x_max":441,"o":"m 441 396 l 441 298 l 60 298 l 60 396 l 441 396 z "},".":{"ha":387,"x_min":107,"x_max":281,"o":"m 195 153 q 254 127 228 153 q 281 66 281 102 q 254 7 281 33 q 193 -18 228 -18 q 132 7 157 -18 q 107 68 107 33 q 133 129 107 104 q 195 153 159 153 z "},"/":{"ha":431,"x_min":-14,"x_max":445,"o":"m 91 -22 l -14 -22 l 340 1046 l 445 1046 l 91 -22 z "},"@":{"ha":1426,"x_min":179,"x_max":1253,"o":"m 1084 66 q 983 24 1027 41 q 901 -3 940 7 q 826 -18 863 -14 q 749 -22 789 -22 q 524 18 628 -22 q 344 130 420 58 q 223 296 267 201 q 179 505 179 392 q 223 717 179 618 q 344 888 267 815 q 524 1004 420 962 q 745 1046 627 1046 q 945 1010 852 1046 q 1106 914 1038 975 q 1214 770 1175 853 q 1253 593 1253 688 q 1230 450 1253 518 q 1168 332 1207 382 q 1077 251 1128 281 q 967 221 1025 221 q 873 252 911 221 q 827 334 834 283 q 736 252 788 282 q 633 222 685 222 q 580 236 605 222 q 536 273 555 250 q 506 328 517 296 q 495 396 495 359 q 532 571 495 486 q 633 716 568 656 q 713 770 673 753 q 800 787 753 787 q 836 783 821 787 q 863 770 850 779 q 886 745 875 761 q 911 705 898 730 l 928 765 l 1034 765 l 933 370 q 930 358 932 365 q 929 343 929 351 q 991 271 929 271 q 1065 297 1029 271 q 1129 366 1101 323 q 1174 463 1157 408 q 1191 578 1191 518 q 1156 741 1191 665 q 1060 875 1120 818 q 918 965 1000 932 q 745 998 837 998 q 585 968 659 998 q 453 880 510 939 q 347 711 385 812 q 309 500 309 609 q 342 314 309 399 q 435 168 376 229 q 578 73 495 107 q 762 38 662 38 q 836 42 800 38 q 907 55 871 46 q 981 78 943 64 q 1065 113 1020 92 l 1084 66 m 817 718 q 749 694 787 718 q 680 633 712 671 q 625 536 644 590 q 606 422 606 481 q 631 323 606 358 q 699 289 656 289 q 762 313 731 289 q 817 380 793 336 q 845 440 833 408 q 867 505 857 472 q 881 568 876 537 q 886 625 886 598 q 817 718 886 718 z "},"A":{"ha":1107,"x_min":24,"x_max":1096,"o":"m 1096 0 l 701 0 l 701 28 q 735 29 722 28 q 758 32 749 30 q 773 36 766 34 q 787 42 780 38 q 804 59 798 49 q 810 80 810 69 q 780 186 810 118 l 715 334 l 311 334 l 239 153 q 230 123 233 138 q 227 92 227 107 q 251 45 227 61 q 332 28 275 28 l 332 0 l 24 0 l 24 28 q 73 38 53 30 q 114 73 94 46 q 158 149 134 99 q 218 283 182 198 l 540 1043 l 570 1043 l 956 164 q 989 95 975 121 q 1019 55 1004 69 q 1052 35 1034 41 q 1096 28 1070 30 l 1096 0 m 694 396 l 515 823 l 336 396 l 694 396 z "},"B":{"ha":1032,"x_min":26,"x_max":918,"o":"m 460 1025 q 764 959 662 1025 q 865 762 865 892 q 849 673 865 715 q 803 606 833 632 q 774 585 788 594 q 744 568 761 575 q 705 553 727 560 q 652 538 682 547 q 718 522 690 530 q 768 504 746 514 q 807 481 789 494 q 842 453 825 469 q 918 278 918 385 q 892 161 918 213 q 818 74 867 110 q 700 19 769 38 q 544 0 631 0 l 26 0 l 26 28 q 102 36 73 30 q 148 57 132 42 q 170 98 164 72 q 175 167 175 125 l 175 856 q 170 925 175 899 q 149 966 165 951 q 104 986 133 981 q 26 994 75 991 l 26 1025 l 460 1025 m 331 121 q 351 70 331 83 q 426 57 372 57 q 498 59 467 57 q 557 66 530 61 q 605 79 583 71 q 646 98 627 87 q 741 277 741 152 q 606 475 741 423 q 559 488 585 483 q 503 497 534 494 q 429 503 471 500 q 331 505 387 505 l 331 121 m 480 567 q 649 615 590 567 q 708 755 708 663 q 639 914 708 861 q 434 967 570 967 l 366 967 q 331 921 331 967 l 331 567 l 480 567 z "},"C":{"ha":1032,"x_min":42,"x_max":979,"o":"m 925 697 q 903 763 914 735 q 881 813 892 791 q 855 853 869 836 q 822 890 841 871 q 717 961 776 937 q 591 985 658 985 q 439 952 507 985 q 322 859 370 920 q 248 713 274 799 q 222 524 222 628 q 259 286 222 388 q 363 127 296 184 q 606 46 465 46 q 784 83 703 46 q 952 202 865 119 l 979 175 q 800 30 909 81 q 557 -22 690 -22 q 347 16 442 -22 q 184 123 252 54 q 79 288 117 191 q 42 502 42 384 q 88 744 42 636 q 224 925 134 852 q 382 1014 294 982 q 560 1046 471 1046 q 788 1008 675 1046 q 849 994 826 994 q 889 1008 872 994 q 913 1046 906 1021 l 945 1046 l 960 697 l 925 697 z "},"D":{"ha":1118,"x_min":24,"x_max":1061,"o":"m 160 856 q 156 925 160 899 q 138 965 152 951 q 97 985 123 979 q 24 994 71 990 l 24 1025 l 442 1025 q 703 991 587 1025 q 897 891 818 956 q 1019 731 977 826 q 1061 517 1061 636 q 1016 297 1061 399 q 890 126 971 195 q 705 33 818 66 q 463 0 591 0 l 24 0 l 24 28 q 96 37 69 31 q 136 59 122 43 q 155 100 151 75 q 160 167 160 126 l 160 856 m 317 121 q 334 70 317 83 q 396 57 351 57 q 572 71 500 57 q 703 121 643 85 q 892 506 892 229 q 844 732 892 633 q 703 894 796 831 q 572 949 646 932 q 396 967 498 967 q 334 955 350 967 q 317 907 317 943 l 317 121 z "},"E":{"ha":945,"x_min":19,"x_max":925,"o":"m 854 0 l 19 0 l 19 28 q 87 38 61 31 q 128 60 114 45 q 148 100 142 75 q 153 167 153 126 l 153 856 q 149 922 153 897 q 129 963 144 948 q 87 985 114 978 q 19 994 61 991 l 19 1025 l 841 1025 l 844 803 l 807 803 q 783 888 796 856 q 744 937 769 920 q 677 960 719 955 q 571 966 636 966 l 362 966 q 321 956 331 966 q 311 913 311 947 l 311 570 l 548 570 q 625 575 595 570 q 673 596 655 581 q 701 640 692 612 q 719 716 711 669 l 755 716 l 755 357 l 719 357 q 701 435 711 406 q 674 479 692 464 q 627 500 656 495 q 548 506 597 506 l 311 506 l 311 123 q 313 90 311 100 q 323 73 316 79 q 375 62 334 66 q 473 57 416 57 l 517 57 q 656 65 600 57 q 752 96 712 73 q 822 159 792 119 q 880 262 852 198 l 925 262 l 854 0 z "},"F":{"ha":861,"x_min":19,"x_max":844,"o":"m 705 357 q 688 432 699 403 q 660 477 678 461 q 611 500 642 494 q 534 506 581 506 l 311 506 l 311 167 q 315 100 311 126 q 336 59 320 75 q 379 37 351 43 q 452 28 407 31 l 452 0 l 19 0 l 19 28 q 89 38 62 31 q 130 62 115 45 q 149 108 144 79 q 153 186 153 137 l 153 856 q 149 922 153 897 q 129 963 144 948 q 87 985 114 978 q 19 994 61 991 l 19 1025 l 841 1025 l 844 803 l 807 803 q 783 888 796 856 q 744 937 769 920 q 677 960 719 955 q 571 966 636 966 l 361 966 q 319 956 328 966 q 311 913 311 947 l 311 570 l 534 570 q 611 575 581 570 q 660 597 642 581 q 688 642 678 613 q 705 716 699 670 l 742 716 l 742 357 l 705 357 z "},"G":{"ha":1118,"x_min":50,"x_max":1097,"o":"m 1097 519 q 1042 511 1063 517 q 1010 492 1021 505 q 994 456 998 479 q 990 400 990 434 l 990 87 q 922 47 967 66 q 823 12 878 27 q 710 -13 768 -4 q 602 -22 652 -22 q 364 20 473 -22 q 178 144 255 62 q 81 301 113 213 q 50 502 50 389 q 90 721 50 621 q 199 892 129 821 q 366 1005 269 964 q 579 1046 463 1046 q 791 1010 685 1046 q 860 994 836 994 q 903 1009 884 994 q 929 1046 922 1024 l 962 1046 l 975 719 l 940 719 q 913 781 925 754 q 888 828 901 807 q 861 866 875 849 q 830 899 848 883 q 606 985 738 985 q 451 952 522 985 q 330 859 380 920 q 254 705 282 800 q 225 505 225 609 q 254 310 225 396 q 335 164 282 224 q 463 72 388 104 q 633 39 538 39 q 713 47 675 39 q 779 66 750 54 q 823 96 807 79 q 840 132 840 113 l 840 382 q 836 450 840 425 q 817 490 831 476 q 776 511 803 505 q 703 519 749 517 l 703 548 l 1097 548 l 1097 519 z "},"H":{"ha":1118,"x_min":28,"x_max":1086,"o":"m 793 555 l 793 856 q 789 923 793 898 q 770 963 784 948 q 728 984 755 978 q 656 994 701 990 l 656 1025 l 1086 1025 l 1086 994 q 1015 984 1042 990 q 973 963 987 978 q 955 923 959 948 q 951 856 951 898 l 951 167 q 956 101 951 126 q 975 61 960 76 q 1017 39 990 46 q 1086 28 1043 33 l 1086 0 l 656 0 l 656 28 q 728 37 701 31 q 770 60 755 43 q 789 107 784 77 q 793 186 793 137 l 793 487 l 323 487 l 323 167 q 328 101 323 126 q 347 61 332 76 q 389 39 362 46 q 460 28 416 33 l 460 0 l 28 0 l 28 28 q 102 37 75 31 q 143 60 129 43 q 161 107 157 77 q 165 186 165 137 l 165 856 q 161 923 165 898 q 142 963 156 948 q 100 984 127 978 q 28 994 73 990 l 28 1025 l 460 1025 l 460 994 q 388 984 415 990 q 347 963 361 978 q 328 923 332 948 q 323 856 323 898 l 323 555 l 793 555 z "},"I":{"ha":517,"x_min":27,"x_max":487,"o":"m 178 856 q 173 925 178 899 q 152 966 168 951 q 106 986 136 981 q 27 994 76 991 l 27 1025 l 487 1025 l 487 994 q 408 987 438 993 q 362 966 378 981 q 340 924 346 951 q 335 856 335 898 l 335 167 q 341 98 335 125 q 363 57 347 72 q 410 36 380 42 q 487 28 439 30 l 487 0 l 27 0 l 27 28 q 106 36 76 30 q 151 57 136 42 q 172 98 167 72 q 178 167 178 123 l 178 856 z "},"J":{"ha":602,"x_min":15,"x_max":572,"o":"m 431 283 q 363 58 431 137 q 167 -22 294 -22 q 58 9 100 -22 q 15 91 15 41 q 37 144 15 122 q 91 167 60 167 q 171 90 149 167 q 189 47 180 60 q 213 35 197 35 q 271 138 271 35 l 271 856 q 267 924 271 898 q 247 964 262 949 q 203 985 232 979 q 127 994 175 991 l 127 1025 l 572 1025 l 572 994 q 497 985 525 991 q 455 964 469 979 q 436 924 441 949 q 431 856 431 898 l 431 283 z "},"K":{"ha":1118,"x_min":53,"x_max":1119,"o":"m 639 1025 l 1044 1025 l 1044 994 q 978 987 1005 991 q 926 970 951 982 q 876 935 902 958 q 810 875 849 913 l 517 583 l 876 197 q 962 107 929 140 q 1021 57 996 75 q 1067 35 1046 39 q 1119 28 1089 30 l 1119 0 l 648 0 l 648 28 l 690 31 q 755 65 755 33 q 741 104 755 79 q 699 165 726 130 q 635 241 673 199 q 553 328 598 283 l 389 491 l 350 458 l 350 167 q 355 99 350 125 q 374 58 359 73 q 416 37 388 43 q 488 28 444 31 l 488 0 l 53 0 l 53 28 q 126 38 99 31 q 168 62 153 45 q 186 108 182 79 q 191 186 191 137 l 191 856 q 186 922 191 897 q 167 963 182 948 q 125 985 152 978 q 53 994 98 991 l 53 1025 l 492 1025 l 492 994 q 417 985 445 991 q 374 964 389 979 q 355 924 359 949 q 350 856 350 898 l 350 538 l 624 788 q 717 884 689 848 q 745 947 745 921 q 730 981 745 970 q 680 994 716 991 l 639 994 l 639 1025 z "},"L":{"ha":945,"x_min":19,"x_max":926,"o":"m 926 269 l 850 0 l 19 0 l 19 28 q 87 38 61 31 q 128 60 114 45 q 148 100 142 75 q 153 167 153 126 l 153 856 q 149 922 153 897 q 129 963 144 948 q 87 985 114 978 q 19 994 61 991 l 19 1025 l 454 1025 l 454 994 q 380 985 408 991 q 336 964 351 979 q 316 922 321 948 q 311 856 311 897 l 311 123 q 315 90 311 103 q 335 71 320 77 q 376 62 350 64 q 445 60 401 60 l 548 60 q 713 83 647 60 q 821 153 779 106 q 852 201 837 172 q 887 269 868 229 l 926 269 z "},"M":{"ha":1378,"x_min":19,"x_max":1336,"o":"m 648 0 l 625 0 l 236 850 l 236 228 q 242 131 236 168 q 264 72 248 94 q 309 41 281 50 q 382 28 338 31 l 382 0 l 19 0 l 19 28 q 96 41 66 33 q 140 72 125 50 q 161 131 156 94 q 167 228 167 168 l 167 856 q 162 924 167 898 q 142 964 157 949 q 98 985 126 979 q 22 994 69 991 l 22 1025 l 328 1025 l 685 243 l 1029 1025 l 1336 1025 l 1336 994 q 1267 985 1293 991 q 1226 963 1241 978 q 1206 922 1211 948 q 1202 856 1202 897 l 1202 167 q 1207 100 1202 126 q 1227 60 1213 75 q 1267 38 1241 45 q 1336 28 1294 31 l 1336 0 l 902 0 l 902 28 q 976 38 948 31 q 1019 62 1004 45 q 1038 108 1034 79 q 1043 186 1043 137 l 1043 887 l 648 0 z "},"N":{"ha":1118,"x_min":19,"x_max":1093,"o":"m 921 -18 l 236 834 l 236 228 q 242 131 236 168 q 264 72 248 94 q 309 41 281 50 q 382 28 338 31 l 382 0 l 19 0 l 19 28 q 96 41 66 33 q 140 72 125 50 q 161 131 156 94 q 167 228 167 168 l 167 909 q 127 953 144 936 q 95 979 111 970 q 61 991 79 987 q 19 994 43 994 l 19 1025 l 283 1025 l 879 275 l 879 798 q 834 971 879 939 q 795 987 817 982 q 731 994 774 991 l 731 1025 l 1093 1025 l 1093 994 q 1029 985 1050 991 q 993 967 1008 978 q 947 798 947 937 l 947 -18 l 921 -18 z "},"O":{"ha":1118,"x_min":53,"x_max":1065,"o":"m 567 1046 q 777 1000 677 1046 q 945 872 876 954 q 1034 711 1002 803 q 1065 513 1065 618 q 1027 296 1065 395 q 923 127 990 198 q 763 18 856 57 q 559 -22 670 -22 q 353 18 446 -22 q 193 128 259 57 q 90 298 126 199 q 53 517 53 397 q 91 731 53 633 q 197 899 129 829 q 359 1007 264 968 q 567 1046 453 1046 m 553 991 q 431 962 490 991 q 330 882 373 933 q 288 814 307 854 q 256 725 270 773 q 236 623 243 677 q 229 514 229 568 q 266 266 229 374 q 368 103 302 157 q 560 34 449 34 q 671 56 618 34 q 762 117 723 77 q 888 521 888 240 q 851 760 888 655 q 747 921 814 864 q 553 991 662 991 z "},"P":{"ha":861,"x_min":24,"x_max":840,"o":"m 313 167 q 319 98 313 125 q 340 57 324 72 q 384 36 355 42 q 458 28 412 30 l 458 0 l 24 0 l 24 28 q 94 39 69 33 q 133 62 119 46 q 150 108 146 79 q 153 186 153 137 l 153 856 q 149 923 153 898 q 132 962 145 948 q 92 983 118 977 q 24 994 66 990 l 24 1025 l 433 1025 q 641 993 548 1025 q 781 907 734 960 q 840 745 840 838 q 800 602 840 667 q 690 498 760 536 q 576 458 640 471 q 419 446 511 446 q 367 447 389 446 q 313 449 345 448 l 313 167 m 313 513 q 359 509 340 510 q 400 507 377 507 q 670 735 670 507 q 596 911 670 856 q 363 967 522 967 q 323 957 332 967 q 313 914 313 947 l 313 513 z "},"Q":{"ha":1118,"x_min":53,"x_max":1085,"o":"m 1085 -274 l 1076 -274 q 1052 -277 1065 -277 q 1025 -277 1039 -277 q 699 -229 837 -277 q 481 -87 562 -180 l 410 -1 q 337 26 368 12 q 281 54 307 39 q 235 88 256 69 q 190 132 213 107 q 53 509 53 281 q 90 725 53 627 q 195 895 127 823 q 355 1006 262 966 q 559 1046 448 1046 q 763 1006 670 1046 q 923 897 856 967 q 1027 728 990 826 q 1065 513 1065 631 q 892 98 1065 251 q 840 56 865 73 q 788 26 815 39 q 730 5 761 14 q 659 -11 699 -4 q 753 -116 705 -72 q 853 -189 802 -160 q 962 -231 905 -217 q 1085 -245 1019 -244 l 1085 -274 m 553 991 q 432 962 490 991 q 331 880 374 933 q 289 813 308 853 q 256 725 270 773 q 236 623 243 677 q 229 514 229 568 q 266 266 229 374 q 368 103 302 157 q 559 34 449 34 q 687 62 627 34 q 788 142 747 91 q 829 211 810 170 q 861 302 848 252 q 881 406 873 351 q 888 518 888 461 q 851 759 888 654 q 747 921 814 864 q 553 991 662 991 z "},"R":{"ha":1032,"x_min":26,"x_max":1020,"o":"m 1020 0 l 770 0 l 401 477 l 316 473 l 316 167 q 321 100 316 126 q 340 59 326 75 q 382 37 355 43 q 454 28 410 31 l 454 0 l 26 0 l 26 28 q 96 39 69 33 q 136 62 122 46 q 153 108 149 79 q 157 186 157 137 l 157 856 q 153 922 157 897 q 136 962 149 947 q 96 983 122 977 q 26 994 69 990 l 26 1025 l 453 1025 q 657 995 567 1025 q 791 913 747 964 q 833 840 819 882 q 846 751 846 799 q 781 585 846 646 q 567 494 715 524 l 886 100 q 947 47 918 62 q 1020 28 977 33 l 1020 0 m 316 530 q 410 534 370 532 q 481 543 450 537 q 537 559 511 549 q 590 583 563 568 q 655 652 632 606 q 678 755 678 697 q 610 916 678 865 q 392 967 541 967 q 331 956 346 967 q 316 911 316 944 l 316 530 z "},"S":{"ha":861,"x_min":65,"x_max":761,"o":"m 726 716 l 688 716 q 669 776 678 750 q 649 823 661 802 q 624 861 637 844 q 593 897 610 878 q 403 982 511 982 q 287 944 331 982 q 243 841 243 906 q 296 722 243 777 q 469 600 349 666 q 692 435 624 515 q 761 260 761 355 q 736 149 761 201 q 670 60 712 98 q 570 0 628 22 q 445 -22 511 -22 q 351 -14 397 -22 q 262 14 305 -5 q 220 26 239 22 q 189 31 201 31 q 159 16 171 31 q 145 -20 146 1 l 111 -20 l 65 308 l 100 308 q 233 100 159 165 q 414 34 308 34 q 551 81 499 34 q 604 206 604 129 q 597 259 604 236 q 581 298 591 282 q 494 388 553 342 q 353 480 435 434 q 241 548 288 514 q 166 618 195 582 q 123 694 137 655 q 110 780 110 734 q 199 981 110 909 q 283 1029 237 1012 q 374 1046 330 1046 q 456 1037 415 1046 q 541 1012 498 1028 q 581 998 563 1002 q 610 994 598 994 q 659 1046 648 994 l 692 1046 l 726 716 z "},"T":{"ha":945,"x_min":26,"x_max":918,"o":"m 309 960 q 203 954 244 960 q 135 925 161 947 q 93 865 109 903 q 64 762 77 826 l 26 762 l 35 1025 l 909 1025 l 918 762 l 880 762 q 851 865 867 826 q 810 925 836 903 q 742 954 784 947 q 633 960 700 960 l 551 960 l 551 167 q 556 99 551 125 q 577 58 562 73 q 622 37 593 43 q 699 28 651 31 l 699 0 l 248 0 l 248 28 q 324 37 296 31 q 368 60 353 43 q 389 107 384 77 q 393 186 393 137 l 393 960 l 309 960 z "},"U":{"ha":1118,"x_min":22,"x_max":1092,"o":"m 945 393 q 934 245 945 304 q 895 137 922 186 q 548 -22 803 -22 q 255 75 350 -22 q 160 373 160 171 l 160 856 q 155 924 160 898 q 136 964 151 949 q 95 985 122 979 q 22 994 68 991 l 22 1025 l 460 1025 l 460 994 q 385 984 412 990 q 342 963 357 978 q 322 923 327 948 q 317 856 317 898 l 317 361 q 327 240 317 288 q 357 156 336 193 q 585 46 420 46 q 742 79 673 46 q 842 167 811 111 q 869 252 861 203 q 876 380 876 300 l 876 798 q 871 892 876 856 q 850 951 865 929 q 806 982 834 972 q 734 994 779 991 l 734 1025 l 1092 1025 l 1092 994 q 1015 979 1044 989 q 970 949 986 970 q 950 892 955 929 q 945 798 945 856 l 945 393 z "},"V":{"ha":1118,"x_min":24,"x_max":1078,"o":"m 1078 994 q 1033 988 1051 993 q 1000 968 1015 983 q 970 924 985 952 q 936 850 956 897 l 593 -18 l 570 -18 l 189 833 q 144 917 163 886 q 109 965 126 948 q 73 988 92 982 q 24 994 53 994 l 24 1025 l 438 1025 l 438 994 l 392 993 q 320 944 320 989 q 323 923 320 935 q 332 892 326 911 q 351 845 339 873 q 384 773 363 817 l 617 250 l 844 817 q 867 883 860 853 q 875 932 875 913 q 868 956 875 943 q 850 975 861 968 q 819 989 836 986 q 762 994 802 993 l 762 1025 l 1078 1025 l 1078 994 z "},"W":{"ha":1461,"x_min":7,"x_max":1442,"o":"m 1442 994 q 1391 982 1411 989 q 1358 964 1371 975 q 1335 935 1344 954 q 1314 886 1325 916 q 1242 689 1272 772 q 1187 539 1211 606 q 1143 415 1162 472 q 1101 296 1123 358 q 1055 158 1080 233 q 998 -18 1031 83 l 975 -18 l 728 637 l 488 -18 l 465 -18 l 167 814 q 129 903 145 869 q 96 957 113 937 q 58 984 79 977 q 7 994 37 991 l 7 1025 l 387 1025 l 387 994 q 307 981 328 991 q 285 947 285 971 q 290 916 285 933 q 302 875 294 898 l 526 292 l 692 730 l 640 856 q 606 930 620 902 q 575 972 591 958 q 538 990 559 986 q 484 994 517 994 l 484 1025 l 897 1025 l 897 994 q 808 981 836 994 q 780 941 780 967 q 785 909 780 929 q 802 863 791 888 l 821 815 l 1025 288 l 1218 811 q 1244 929 1244 882 q 1220 975 1244 960 q 1137 994 1196 989 l 1137 1025 l 1442 1025 l 1442 994 z "},"X":{"ha":1118,"x_min":15,"x_max":1090,"o":"m 1077 994 q 1013 987 1040 993 q 962 966 986 981 q 911 923 937 951 q 846 849 884 895 l 620 567 l 918 144 q 961 89 943 110 q 998 56 979 68 q 1038 38 1016 43 q 1090 28 1059 33 l 1090 0 l 631 0 l 631 28 l 671 33 q 749 77 749 34 q 670 229 749 113 l 524 446 l 338 217 q 277 132 296 163 q 258 84 258 100 q 283 45 258 57 q 376 28 308 34 l 376 0 l 15 0 l 15 28 q 64 36 45 31 q 104 58 83 41 q 157 109 126 75 q 239 205 187 144 l 481 505 l 315 751 q 220 880 256 833 q 155 953 183 928 q 99 985 126 978 q 34 994 72 993 l 34 1025 l 502 1025 l 502 994 l 458 994 q 384 948 384 993 q 414 869 384 922 q 517 716 445 815 l 581 625 l 755 840 q 804 905 791 883 q 817 945 817 928 q 795 983 817 972 q 709 994 773 993 l 709 1025 l 1077 1025 l 1077 994 z "},"Y":{"ha":1118,"x_min":34,"x_max":1089,"o":"m 1089 994 q 1034 985 1058 993 q 987 957 1010 977 q 937 904 963 937 q 875 819 910 871 l 646 469 l 646 167 q 651 97 646 123 q 673 56 656 71 q 722 35 690 41 q 804 28 753 30 l 804 0 l 331 0 l 331 28 q 415 37 384 31 q 462 60 446 43 q 482 106 477 76 q 487 186 487 136 l 487 454 l 285 751 q 191 882 227 834 q 129 955 155 930 q 82 987 103 979 q 34 994 61 994 l 34 1025 l 467 1025 l 467 994 l 429 994 q 357 951 357 990 q 384 880 357 920 l 613 537 l 834 887 q 856 944 856 918 q 833 983 856 971 q 749 994 810 994 l 749 1025 l 1089 1025 l 1089 994 z "},"Z":{"ha":945,"x_min":14,"x_max":925,"o":"m 925 271 l 887 0 l 14 0 l 14 22 l 690 966 l 349 966 q 140 899 194 966 q 109 846 121 875 q 90 761 98 817 l 47 761 l 79 1025 l 894 1025 l 894 1001 l 224 58 l 623 58 q 739 74 689 58 q 815 119 788 90 q 836 145 827 132 q 854 176 845 159 q 871 216 863 193 q 888 271 879 239 l 925 271 z "},"_":{"ha":774,"x_min":0,"x_max":774,"o":"m 0 -195 l 0 -117 l 774 -117 l 774 -195 l 0 -195 z "},"a":{"ha":688,"x_min":57,"x_max":684,"o":"m 570 163 q 579 92 570 111 q 616 72 589 72 q 684 100 647 72 l 684 61 q 614 1 644 18 q 545 -15 585 -15 q 475 12 498 -15 q 448 100 453 38 q 324 12 377 39 q 221 -15 271 -15 q 102 31 148 -15 q 57 151 57 77 q 71 224 57 187 q 113 285 85 262 q 158 322 137 307 q 213 355 179 338 q 301 393 247 372 q 445 452 355 415 l 445 551 q 414 647 445 614 q 327 680 384 680 q 248 657 279 680 q 216 604 216 635 q 219 572 216 591 q 222 541 222 553 q 201 495 222 514 q 153 476 180 476 q 106 496 126 476 q 87 543 87 515 q 104 604 87 572 q 151 659 121 635 q 234 701 182 686 q 347 716 286 716 q 466 692 418 716 q 540 627 514 669 q 563 564 556 600 q 570 467 570 528 l 570 163 m 445 414 q 325 364 374 388 q 245 315 275 340 q 201 262 214 290 q 187 199 187 233 l 187 193 q 195 146 187 168 q 218 107 203 123 q 251 81 232 91 q 290 72 270 72 q 345 82 315 72 q 403 107 376 92 q 437 138 430 122 q 445 190 445 155 l 445 414 z "},"b":{"ha":774,"x_min":4,"x_max":724,"o":"m 236 585 q 270 637 248 613 q 320 680 292 662 q 382 707 349 697 q 452 716 416 716 q 559 690 510 716 q 646 618 609 663 q 703 510 682 572 q 724 376 724 448 q 696 220 724 292 q 620 97 669 149 q 505 15 571 45 q 362 -15 439 -15 q 269 -6 315 -15 q 186 16 222 3 q 128 47 151 30 q 106 84 106 65 l 106 887 q 92 951 106 936 q 31 967 77 967 q 17 966 23 967 q 4 964 11 966 l 4 990 l 50 1001 q 142 1026 104 1013 q 229 1058 180 1039 l 236 1054 l 236 585 m 236 107 q 248 79 236 92 q 281 56 260 66 q 330 40 302 46 q 387 34 357 34 q 535 104 483 34 q 587 304 587 175 q 581 389 587 347 q 564 467 575 430 q 536 532 552 503 q 500 578 519 560 q 449 608 477 600 q 389 617 420 617 q 332 608 359 617 q 283 583 304 598 q 249 546 262 567 q 236 502 236 525 l 236 107 z "},"c":{"ha":688,"x_min":38,"x_max":637,"o":"m 637 228 q 603 165 618 191 q 573 117 587 138 q 544 80 559 96 q 511 50 529 64 q 331 -15 430 -15 q 213 10 267 -15 q 120 81 159 35 q 60 190 81 127 q 38 328 38 252 q 71 505 38 425 q 167 637 104 586 q 268 696 214 677 q 377 716 321 716 q 469 703 426 716 q 545 669 513 690 q 597 618 578 647 q 616 556 616 589 q 595 509 616 529 q 544 488 574 488 q 498 509 517 488 q 469 563 479 529 l 460 597 q 429 655 449 640 q 368 670 410 670 q 281 650 320 670 q 216 594 243 631 q 173 507 189 557 q 157 396 157 457 q 175 275 157 331 q 224 180 193 220 q 299 119 255 141 q 396 96 343 96 q 511 128 463 96 q 616 241 560 160 l 637 228 z "},"d":{"ha":774,"x_min":41,"x_max":761,"o":"m 526 -11 l 526 90 q 440 9 487 33 q 328 -15 393 -15 q 210 9 263 -15 q 120 77 157 33 q 62 182 83 121 q 41 317 41 243 q 66 472 41 400 q 136 598 92 544 q 238 684 179 652 q 363 715 297 715 q 446 701 411 715 q 526 648 481 686 l 526 887 q 512 951 526 935 q 454 967 498 967 q 437 966 445 967 q 420 964 430 966 l 420 991 q 487 1008 457 1001 q 543 1023 517 1016 q 595 1039 570 1031 q 648 1058 620 1047 l 656 1054 l 656 176 q 669 105 656 122 q 724 88 682 88 q 741 89 731 88 q 761 90 751 90 l 761 65 l 533 -15 l 526 -11 m 526 517 q 513 574 526 547 q 479 624 500 602 q 428 659 457 646 q 368 671 399 671 q 288 650 324 671 q 227 591 252 629 q 189 498 202 552 q 175 380 175 445 q 190 250 175 308 q 233 151 205 191 q 300 87 260 110 q 388 65 339 65 q 502 114 461 65 q 526 157 526 141 l 526 517 z "},"e":{"ha":688,"x_min":38,"x_max":656,"o":"m 656 243 q 524 50 608 115 q 328 -15 441 -15 q 208 9 262 -15 q 117 79 155 34 q 58 187 79 123 q 38 331 38 251 q 62 487 38 416 q 128 608 85 557 q 231 688 171 659 q 362 716 290 716 q 474 693 423 716 q 560 628 525 670 q 585 590 575 609 q 603 548 595 571 q 616 496 610 525 q 627 431 621 468 l 151 431 q 163 309 153 357 q 197 216 174 260 q 392 91 263 91 q 522 127 467 91 q 632 252 576 164 l 656 243 m 469 483 q 421 622 454 583 q 317 661 388 661 q 205 618 245 661 q 153 483 165 576 l 469 483 z "},"f":{"ha":517,"x_min":31,"x_max":593,"o":"m 479 648 l 289 648 l 289 160 q 294 90 289 117 q 313 50 298 64 q 357 29 328 35 q 433 22 385 23 l 433 0 l 31 0 l 31 22 q 98 31 73 24 q 137 52 123 37 q 155 92 151 66 q 159 160 159 118 l 159 648 l 33 648 l 33 700 l 159 700 q 162 781 159 746 q 172 843 165 815 q 188 895 178 871 q 213 945 198 920 q 300 1027 243 997 q 431 1058 358 1058 q 547 1031 502 1058 q 593 962 593 1004 q 574 916 593 935 q 528 897 556 897 q 492 909 509 897 q 458 954 476 922 q 420 1000 438 987 q 376 1013 401 1013 q 288 876 288 1013 l 288 700 l 479 700 l 479 648 z "},"g":{"ha":774,"x_min":42,"x_max":728,"o":"m 600 602 q 621 534 614 563 q 627 469 627 505 q 608 377 627 420 q 556 300 589 334 q 480 248 524 267 q 387 228 437 228 q 364 229 380 228 q 328 233 349 231 l 298 237 q 266 222 282 233 q 236 196 250 210 q 214 167 222 182 q 205 140 205 152 q 234 112 205 122 q 327 99 263 102 l 526 90 q 662 41 612 85 q 712 -75 712 -3 q 671 -192 712 -142 q 570 -274 631 -241 q 439 -322 509 -307 q 311 -338 369 -338 q 206 -326 255 -338 q 121 -294 157 -315 q 63 -247 84 -274 q 42 -189 42 -220 q 77 -102 42 -145 q 195 1 111 -58 q 130 41 146 24 q 113 84 113 58 q 130 131 113 107 q 184 190 146 155 l 251 252 q 139 338 172 290 q 106 460 106 387 q 126 559 106 513 q 181 641 146 606 q 263 696 216 675 q 363 716 311 716 q 488 693 426 716 l 524 680 q 566 665 547 671 q 609 659 586 659 l 728 659 l 728 602 l 600 602 m 228 -4 q 190 -50 205 -31 q 167 -84 175 -69 q 155 -111 159 -99 q 152 -137 152 -123 q 212 -219 152 -189 q 376 -250 273 -250 q 496 -239 442 -250 q 589 -208 551 -228 q 649 -161 628 -189 q 670 -99 670 -133 q 627 -41 670 -57 q 479 -24 583 -24 q 414 -22 450 -24 q 344 -18 378 -20 q 279 -12 309 -15 q 228 -4 248 -8 m 235 518 q 246 416 235 463 q 279 336 258 369 q 329 284 300 302 q 395 266 358 266 q 477 304 446 266 q 509 408 509 343 q 497 505 509 456 q 464 594 486 553 q 415 652 445 631 q 350 673 385 673 q 265 632 296 673 q 235 524 235 591 l 235 518 z "},"h":{"ha":774,"x_min":14,"x_max":754,"o":"m 243 157 q 247 93 243 118 q 262 54 251 68 q 294 33 273 39 q 349 22 315 26 l 349 0 l 14 0 l 14 22 q 67 34 47 27 q 97 55 87 41 q 110 93 107 69 q 113 157 113 117 l 113 887 q 110 927 113 911 q 98 951 107 943 q 74 963 90 960 q 34 966 58 966 q 15 964 20 966 l 15 990 l 57 1001 q 114 1019 90 1012 q 159 1033 138 1027 q 197 1045 179 1039 q 235 1058 214 1051 l 243 1053 l 243 581 q 349 682 297 652 q 469 712 401 712 q 613 650 567 712 q 659 465 659 587 l 659 157 q 662 94 659 118 q 675 56 665 71 q 704 35 685 42 q 754 22 723 27 l 754 0 l 426 0 l 426 22 q 480 33 460 26 q 512 54 500 39 q 527 93 524 68 q 530 157 530 118 l 530 463 q 416 627 530 627 q 330 606 369 627 q 243 530 292 585 l 243 157 z "},"i":{"ha":431,"x_min":24,"x_max":392,"o":"m 277 708 l 277 157 q 280 90 277 115 q 296 51 283 65 q 330 31 308 37 q 392 22 353 26 l 392 0 l 24 0 l 24 22 q 89 31 65 24 q 125 51 113 37 q 142 90 138 65 q 146 157 146 115 l 146 517 q 135 589 146 568 q 96 610 123 610 q 71 609 85 610 q 42 605 57 608 l 31 604 l 31 627 l 270 712 l 277 708 m 199 1058 q 255 1034 232 1058 q 278 978 278 1010 q 256 922 278 944 q 198 899 233 899 q 142 922 164 899 q 121 978 121 944 q 144 1034 121 1010 q 199 1058 167 1058 z "},"j":{"ha":431,"x_min":-110,"x_max":298,"o":"m 298 0 q 231 -252 298 -167 q 35 -338 164 -338 q -68 -314 -27 -338 q -110 -252 -110 -290 q -91 -210 -110 -227 q -45 -193 -72 -193 q -9 -203 -26 -193 q 28 -241 8 -214 q 62 -275 47 -266 q 94 -285 76 -285 q 146 -258 130 -285 q 157 -233 153 -247 q 163 -197 161 -218 q 166 -146 165 -176 q 167 -71 167 -115 l 167 517 q 156 589 167 567 q 119 610 145 610 q 92 609 107 610 q 57 605 76 608 l 50 604 l 50 627 q 113 648 84 637 q 170 667 141 658 q 227 688 198 677 q 290 712 256 699 l 298 708 l 298 0 m 221 1058 q 276 1034 254 1058 q 298 978 298 1010 q 277 922 298 944 q 221 899 256 899 q 165 922 187 899 q 142 978 142 944 q 165 1034 142 1010 q 221 1058 189 1058 z "},"k":{"ha":774,"x_min":11,"x_max":781,"o":"m 11 990 l 57 1001 q 118 1018 92 1010 q 166 1032 144 1025 q 208 1045 189 1039 q 251 1058 228 1051 l 256 1054 l 256 403 l 469 593 q 505 648 505 625 q 488 667 505 662 q 427 675 472 673 l 427 697 l 743 697 l 743 673 q 677 668 707 674 q 612 642 647 662 q 529 583 576 621 q 408 479 481 544 l 363 438 l 602 136 q 690 51 650 76 q 781 22 730 26 l 781 0 l 445 0 l 445 22 l 473 22 q 497 28 488 22 q 506 46 506 35 q 503 60 506 53 q 488 79 499 68 q 479 92 480 90 l 473 99 l 256 388 l 256 103 q 276 45 256 64 q 342 24 296 27 l 373 22 l 373 0 l 11 0 l 11 22 q 75 35 52 28 q 110 51 99 41 q 123 79 121 61 q 126 126 126 96 l 126 873 q 113 948 126 929 q 60 967 99 967 q 37 966 49 967 q 11 964 26 966 l 11 990 z "},"l":{"ha":431,"x_min":28,"x_max":396,"o":"m 28 990 q 101 1007 69 1000 q 162 1023 133 1015 q 218 1039 191 1031 q 275 1058 245 1047 l 282 1054 l 282 130 q 286 78 282 98 q 302 47 290 58 q 337 30 315 35 q 396 22 359 24 l 396 0 l 33 0 l 33 22 q 92 32 69 26 q 129 51 115 38 q 147 84 142 64 q 152 136 152 104 l 152 873 q 138 947 152 928 q 87 967 123 967 q 63 966 76 967 q 38 964 50 966 l 28 964 l 28 990 z "},"m":{"ha":1204,"x_min":24,"x_max":1200,"o":"m 28 643 q 87 659 61 651 q 140 675 114 667 q 191 692 165 684 q 245 712 216 701 l 256 709 l 256 593 q 339 653 305 629 q 399 690 373 677 q 448 707 426 703 q 495 712 469 712 q 659 581 621 712 q 785 681 724 650 q 913 712 845 712 q 1093 438 1093 712 l 1093 118 q 1161 26 1093 30 l 1200 22 l 1200 0 l 861 0 l 861 22 q 915 32 895 26 q 945 50 935 38 q 958 81 955 61 q 962 136 962 102 l 962 461 q 956 543 962 510 q 937 595 951 575 q 901 623 924 614 q 846 632 879 632 q 753 610 792 632 q 678 537 713 587 l 678 146 q 683 87 678 111 q 701 50 688 64 q 735 29 713 35 q 789 22 757 23 l 789 0 l 442 0 l 442 22 q 496 30 475 24 q 528 47 517 35 q 544 80 540 60 q 548 133 548 100 l 548 469 q 448 632 548 632 q 357 613 404 632 q 283 567 311 594 q 263 540 263 544 l 263 103 q 284 41 263 57 q 368 22 305 24 l 368 0 l 24 0 l 24 22 q 78 28 57 23 q 111 46 99 34 q 128 79 123 58 q 133 132 133 100 l 133 524 q 121 602 133 581 q 79 623 110 623 q 55 621 65 623 q 28 616 45 618 l 28 643 z "},"n":{"ha":774,"x_min":24,"x_max":750,"o":"m 24 643 q 135 675 88 661 q 237 712 182 690 l 250 709 l 250 586 q 319 647 289 623 q 374 686 349 671 q 422 706 399 700 q 473 712 446 712 q 608 651 559 712 q 656 480 656 590 l 656 125 q 675 49 656 69 q 750 22 694 28 l 750 0 l 429 0 l 429 22 q 476 31 457 24 q 507 53 495 38 q 522 92 518 68 q 526 153 526 117 l 526 477 q 414 627 526 627 q 377 623 395 627 q 341 609 359 618 q 302 582 323 600 q 252 538 281 564 l 252 103 q 274 44 252 61 q 355 22 296 27 l 355 0 l 27 0 l 27 22 q 75 31 57 24 q 104 50 94 37 q 119 85 115 64 q 123 138 123 106 l 123 524 q 111 602 123 581 q 66 623 99 623 q 24 616 42 623 l 24 643 z "},"o":{"ha":774,"x_min":45,"x_max":728,"o":"m 387 712 q 524 686 461 712 q 631 614 586 661 q 703 503 677 567 q 728 362 728 439 q 702 212 728 281 q 629 93 675 144 q 520 14 583 42 q 384 -15 457 -15 q 248 12 311 -15 q 141 88 186 39 q 71 203 96 137 q 45 349 45 270 q 70 496 45 429 q 140 611 95 563 q 248 686 184 659 q 387 712 311 712 m 363 669 q 233 602 282 669 q 184 426 184 536 q 202 265 184 343 q 252 126 220 187 q 317 53 277 79 q 406 27 358 27 q 539 102 491 27 q 587 309 587 178 q 559 494 587 408 q 481 623 530 579 q 427 658 456 647 q 363 669 399 669 z "},"p":{"ha":774,"x_min":7,"x_max":728,"o":"m 14 633 q 73 652 46 643 q 126 670 100 661 q 178 690 152 680 q 236 712 205 700 l 245 709 l 245 590 q 351 684 297 655 q 469 712 404 712 q 572 688 525 712 q 654 619 620 663 q 709 515 689 575 q 728 382 728 454 q 703 226 728 298 q 634 100 678 153 q 530 16 590 46 q 401 -15 471 -15 q 357 -12 377 -15 q 320 -1 338 -8 q 284 20 302 7 q 245 52 266 33 l 245 -193 q 251 -252 245 -229 q 271 -287 256 -274 q 313 -304 286 -300 q 382 -309 339 -309 l 382 -336 l 7 -336 l 7 -311 q 62 -301 41 -307 q 96 -283 84 -296 q 113 -252 109 -271 q 117 -203 117 -233 l 117 521 q 104 593 117 576 q 53 610 92 610 q 33 610 42 610 q 14 609 24 610 l 14 633 m 245 136 q 260 100 245 118 q 298 68 275 83 q 351 43 321 53 q 407 34 380 34 q 484 55 449 34 q 543 113 518 76 q 581 203 567 151 q 594 320 594 256 q 581 444 594 388 q 542 538 567 499 q 481 597 517 576 q 403 618 446 618 q 348 609 376 618 q 297 585 320 600 q 260 552 274 570 q 245 517 245 534 l 245 136 z "},"q":{"ha":774,"x_min":35,"x_max":755,"o":"m 640 708 l 658 708 l 658 -218 q 661 -258 658 -243 q 675 -284 665 -274 q 704 -301 685 -294 q 755 -315 723 -308 l 755 -336 l 389 -336 l 389 -311 q 458 -301 431 -308 q 500 -281 484 -294 q 522 -247 515 -269 q 528 -193 528 -225 l 528 99 q 414 14 476 42 q 285 -15 353 -15 q 184 9 229 -15 q 105 77 138 34 q 54 182 72 121 q 35 317 35 244 q 62 473 35 400 q 134 598 88 545 q 243 682 180 651 q 377 712 305 712 q 464 701 425 712 q 557 658 503 689 l 640 708 m 528 517 q 384 669 528 669 q 227 589 285 669 q 170 373 170 510 q 193 224 170 293 q 256 121 217 155 q 373 79 302 79 q 446 92 410 79 q 509 127 483 104 q 528 197 528 144 l 528 517 z "},"r":{"ha":517,"x_min":7,"x_max":518,"o":"m 11 627 q 73 649 45 639 q 128 669 102 659 q 181 690 155 680 q 239 712 208 700 l 248 709 l 248 567 q 300 637 277 609 q 345 682 323 665 q 387 705 366 699 q 433 712 408 712 q 495 690 472 712 q 518 631 518 667 q 502 578 518 597 q 458 560 486 560 q 429 566 444 560 q 396 591 415 572 q 373 608 384 602 q 355 613 362 613 q 321 600 339 613 q 286 568 302 587 q 259 528 270 549 q 248 487 248 506 l 248 138 q 254 84 248 106 q 274 50 259 62 q 315 30 289 37 q 380 22 340 23 l 380 0 l 7 0 l 7 22 q 66 36 43 28 q 100 54 88 43 q 115 83 111 65 q 118 130 118 102 l 118 517 q 106 589 118 568 q 65 610 94 610 q 39 609 50 610 q 11 604 27 608 l 11 627 z "},"s":{"ha":602,"x_min":79,"x_max":538,"o":"m 463 486 q 399 633 437 590 q 294 677 361 677 q 208 648 240 677 q 175 571 175 618 q 241 465 175 505 l 408 366 q 509 283 479 324 q 538 183 538 241 q 521 106 538 142 q 474 43 503 69 q 406 1 445 16 q 321 -15 366 -15 q 269 -12 297 -15 q 206 0 240 -8 q 164 9 179 7 q 136 12 149 12 q 115 8 122 12 q 100 -7 109 4 l 80 -7 l 80 235 l 104 235 q 136 134 118 175 q 176 68 153 94 q 231 31 199 42 q 301 19 262 19 q 397 49 362 19 q 431 130 431 79 q 350 245 431 199 l 260 297 q 176 351 210 326 q 119 404 141 377 q 88 458 98 430 q 79 519 79 487 q 94 597 79 562 q 138 658 110 632 q 205 697 165 684 q 292 711 244 711 q 396 692 346 711 q 439 680 425 680 q 448 682 445 680 q 461 694 450 685 l 463 697 l 481 697 l 487 486 l 463 486 z "},"t":{"ha":431,"x_min":20,"x_max":431,"o":"m 395 648 l 237 648 l 237 203 q 256 97 237 129 q 317 65 275 65 q 365 77 345 65 q 412 119 385 88 l 431 100 q 244 -15 358 -15 q 107 182 107 -15 l 107 648 l 26 648 q 20 658 20 650 q 46 688 20 671 q 197 853 107 723 q 212 874 203 864 q 228 897 221 884 q 235 892 233 897 q 237 876 237 888 l 237 697 l 395 697 l 395 648 z "},"u":{"ha":774,"x_min":14,"x_max":742,"o":"m 742 54 q 635 24 682 39 q 528 -14 587 9 l 524 -11 l 524 118 l 456 52 q 382 2 425 19 q 297 -15 340 -15 q 161 39 212 -15 q 110 186 110 94 l 110 574 q 90 648 110 628 q 14 673 71 669 l 14 700 l 239 700 l 239 191 q 271 108 239 142 q 350 73 304 73 q 421 87 385 73 q 488 130 457 102 q 510 159 503 141 q 517 209 517 178 l 517 575 q 512 622 517 604 q 494 651 507 640 q 458 667 481 662 q 400 673 435 671 l 400 700 l 646 700 l 646 165 q 663 94 646 111 q 734 77 681 77 l 742 77 l 742 54 z "},"v":{"ha":774,"x_min":28,"x_max":738,"o":"m 738 673 q 709 667 720 671 q 687 651 697 663 q 665 615 677 639 q 637 552 654 591 l 439 54 q 412 -5 422 12 q 396 -22 403 -22 q 382 -13 389 -22 q 368 19 374 -4 q 362 32 365 24 q 355 52 359 39 l 170 495 q 126 590 142 555 q 96 643 110 625 q 66 666 81 661 q 28 673 52 671 l 28 697 l 331 697 l 331 673 q 277 661 293 670 q 262 632 262 651 q 265 604 262 620 q 275 572 269 589 l 433 176 l 586 578 q 593 601 591 589 q 594 624 594 613 q 524 673 594 667 l 524 697 l 738 697 l 738 673 z "},"w":{"ha":1118,"x_min":33,"x_max":1076,"o":"m 1076 697 l 1076 673 q 1056 665 1063 669 q 1042 652 1048 661 q 1028 629 1035 644 q 1010 590 1021 614 l 798 54 q 782 16 788 31 q 771 -7 776 1 q 762 -18 766 -15 q 754 -22 758 -22 q 741 -10 746 -22 q 716 45 735 1 l 576 410 l 401 38 q 363 -22 374 -22 q 323 46 350 -22 l 114 576 q 92 625 102 606 q 74 653 83 643 q 56 667 65 663 q 33 673 46 671 l 33 697 l 311 697 l 311 673 q 254 657 270 667 q 239 623 239 647 q 250 576 239 601 l 401 171 l 544 480 l 513 567 q 490 618 500 598 q 469 648 480 637 q 442 665 457 659 q 406 673 427 670 l 406 697 l 719 697 l 719 673 q 648 654 666 666 q 631 618 631 643 q 631 606 631 610 q 634 592 632 601 q 642 568 636 583 q 656 526 647 553 l 787 179 l 926 524 q 946 581 940 555 q 952 627 952 608 q 937 656 952 646 q 883 673 922 666 l 883 697 l 1076 697 z "},"x":{"ha":774,"x_min":26,"x_max":742,"o":"m 431 22 q 481 32 469 24 q 492 60 492 39 q 490 75 492 68 q 481 90 487 81 l 342 304 l 221 114 q 196 73 203 88 q 189 52 189 58 q 202 29 189 37 q 251 22 216 22 l 251 0 l 26 0 l 26 22 q 58 27 45 23 q 84 39 72 31 q 109 62 96 47 q 138 100 122 76 l 316 357 l 170 581 q 136 625 151 608 q 109 654 122 643 q 83 669 96 665 q 52 673 69 673 l 35 673 l 35 697 l 357 697 l 357 673 q 306 665 321 671 q 290 639 290 658 q 309 587 290 624 q 362 502 328 551 q 373 486 368 494 q 384 469 378 479 q 406 503 395 486 q 431 538 418 519 q 473 600 458 576 q 487 639 487 624 q 474 662 487 654 q 426 673 461 670 l 426 697 l 670 697 l 670 673 q 600 654 632 671 q 545 605 567 637 l 416 419 l 613 117 q 677 42 648 62 q 742 22 707 22 l 742 0 l 431 0 l 431 22 z "},"y":{"ha":774,"x_min":22,"x_max":735,"o":"m 735 673 q 691 655 708 670 q 659 604 674 640 l 422 -28 q 359 -172 389 -113 q 299 -267 330 -231 q 235 -321 269 -304 q 160 -338 201 -338 q 78 -313 110 -338 q 46 -248 46 -288 q 65 -200 46 -218 q 113 -182 84 -182 q 152 -185 132 -182 q 193 -197 172 -189 q 216 -205 206 -203 q 232 -206 225 -206 q 271 -188 250 -206 q 311 -140 293 -170 q 331 -97 320 -122 q 351 -47 342 -72 q 367 -2 361 -23 q 373 27 373 19 q 355 87 373 46 q 304 186 336 129 q 292 206 297 195 q 282 232 286 217 l 277 244 l 100 625 q 22 675 84 665 l 22 697 l 340 697 l 340 673 q 271 661 290 670 q 251 632 251 652 q 254 603 251 617 q 267 572 258 589 l 445 182 l 594 609 q 602 633 602 623 q 582 663 602 652 q 526 673 562 673 l 526 697 l 735 697 l 735 673 z "},"z":{"ha":688,"x_min":41,"x_max":648,"o":"m 625 0 l 41 0 l 41 22 l 453 650 l 239 650 q 181 644 203 650 q 144 624 159 639 q 123 583 130 609 q 110 514 115 556 l 81 514 l 87 697 l 624 697 l 624 673 l 206 46 l 420 46 q 574 87 541 46 q 587 106 582 96 q 598 131 593 117 q 608 165 604 145 q 618 216 613 186 l 648 209 l 625 0 z "}}}
